<mxfile host="app.diagrams.net" agent="Mozilla/5.0 (Windows NT 10.0; Win64; x64) AppleWebKit/537.36 (KHTML, like Gecko) Chrome/132.0.0.0 Safari/537.36" version="26.0.10">
  <diagram id="C5RBs43oDa-KdzZeNtuy" name="Page-1">
    <mxGraphModel dx="1434" dy="866" grid="1" gridSize="10" guides="1" tooltips="1" connect="1" arrows="1" fold="1" page="1" pageScale="1" pageWidth="827" pageHeight="1169" math="0" shadow="0">
      <root>
        <mxCell id="WIyWlLk6GJQsqaUBKTNV-0" />
        <mxCell id="WIyWlLk6GJQsqaUBKTNV-1" parent="WIyWlLk6GJQsqaUBKTNV-0" />
        <mxCell id="WIyWlLk6GJQsqaUBKTNV-2" value="" style="rounded=0;html=1;jettySize=auto;orthogonalLoop=1;fontSize=11;endArrow=block;endFill=0;endSize=8;strokeWidth=1;shadow=0;labelBackgroundColor=none;edgeStyle=orthogonalEdgeStyle;entryX=0.5;entryY=0;entryDx=0;entryDy=0;" parent="WIyWlLk6GJQsqaUBKTNV-1" source="WIyWlLk6GJQsqaUBKTNV-3" target="WIyWlLk6GJQsqaUBKTNV-6" edge="1">
          <mxGeometry relative="1" as="geometry">
            <mxPoint x="436" y="340" as="targetPoint" />
          </mxGeometry>
        </mxCell>
        <mxCell id="WIyWlLk6GJQsqaUBKTNV-3" value="Visualizza home" style="rounded=1;whiteSpace=wrap;html=1;fontSize=12;glass=0;strokeWidth=1;shadow=0;" parent="WIyWlLk6GJQsqaUBKTNV-1" vertex="1">
          <mxGeometry x="376" y="260" width="120" height="40" as="geometry" />
        </mxCell>
        <mxCell id="WIyWlLk6GJQsqaUBKTNV-5" value="No" style="edgeStyle=orthogonalEdgeStyle;rounded=0;html=1;jettySize=auto;orthogonalLoop=1;fontSize=11;endArrow=block;endFill=0;endSize=8;strokeWidth=1;shadow=0;labelBackgroundColor=none;entryX=1;entryY=0.5;entryDx=0;entryDy=0;exitX=1;exitY=0.5;exitDx=0;exitDy=0;" parent="WIyWlLk6GJQsqaUBKTNV-1" source="WIyWlLk6GJQsqaUBKTNV-6" target="SCx97nsvygvDcEJ_W3Nr-16" edge="1">
          <mxGeometry x="-0.4858" y="10" relative="1" as="geometry">
            <mxPoint as="offset" />
            <mxPoint x="536" y="435" as="targetPoint" />
            <Array as="points">
              <mxPoint x="516" y="440" />
              <mxPoint x="516" y="205" />
            </Array>
          </mxGeometry>
        </mxCell>
        <mxCell id="WIyWlLk6GJQsqaUBKTNV-6" value="Login" style="rhombus;whiteSpace=wrap;html=1;shadow=0;fontFamily=Helvetica;fontSize=12;align=center;strokeWidth=1;spacing=6;spacingTop=-4;" parent="WIyWlLk6GJQsqaUBKTNV-1" vertex="1">
          <mxGeometry x="386" y="400" width="100" height="80" as="geometry" />
        </mxCell>
        <mxCell id="SCx97nsvygvDcEJ_W3Nr-0" value="" style="ellipse;whiteSpace=wrap;html=1;aspect=fixed;" parent="WIyWlLk6GJQsqaUBKTNV-1" vertex="1">
          <mxGeometry x="426" y="130" width="20" height="20" as="geometry" />
        </mxCell>
        <mxCell id="SCx97nsvygvDcEJ_W3Nr-3" value="" style="rounded=0;html=1;jettySize=auto;orthogonalLoop=1;fontSize=11;endArrow=block;endFill=0;endSize=8;strokeWidth=1;shadow=0;labelBackgroundColor=none;edgeStyle=orthogonalEdgeStyle;exitX=0.5;exitY=1;exitDx=0;exitDy=0;" parent="WIyWlLk6GJQsqaUBKTNV-1" source="SCx97nsvygvDcEJ_W3Nr-0" edge="1">
          <mxGeometry relative="1" as="geometry">
            <mxPoint x="446" y="245" as="sourcePoint" />
            <mxPoint x="436" y="190" as="targetPoint" />
          </mxGeometry>
        </mxCell>
        <mxCell id="SCx97nsvygvDcEJ_W3Nr-16" value="" style="rhombus;whiteSpace=wrap;html=1;" parent="WIyWlLk6GJQsqaUBKTNV-1" vertex="1">
          <mxGeometry x="421" y="190" width="30" height="30" as="geometry" />
        </mxCell>
        <mxCell id="SCx97nsvygvDcEJ_W3Nr-18" value="" style="rounded=0;html=1;jettySize=auto;orthogonalLoop=1;fontSize=11;endArrow=block;endFill=0;endSize=8;strokeWidth=1;shadow=0;labelBackgroundColor=none;edgeStyle=orthogonalEdgeStyle;exitX=0.5;exitY=1;exitDx=0;exitDy=0;entryX=0.5;entryY=0;entryDx=0;entryDy=0;" parent="WIyWlLk6GJQsqaUBKTNV-1" source="SCx97nsvygvDcEJ_W3Nr-16" target="WIyWlLk6GJQsqaUBKTNV-3" edge="1">
          <mxGeometry relative="1" as="geometry">
            <mxPoint x="446" y="140" as="sourcePoint" />
            <mxPoint x="446" y="200" as="targetPoint" />
          </mxGeometry>
        </mxCell>
        <mxCell id="SCx97nsvygvDcEJ_W3Nr-21" value="" style="rhombus;whiteSpace=wrap;html=1;" parent="WIyWlLk6GJQsqaUBKTNV-1" vertex="1">
          <mxGeometry x="421" y="520" width="30" height="30" as="geometry" />
        </mxCell>
        <mxCell id="SCx97nsvygvDcEJ_W3Nr-23" value="" style="rounded=0;html=1;jettySize=auto;orthogonalLoop=1;fontSize=11;endArrow=block;endFill=0;endSize=8;strokeWidth=1;shadow=0;labelBackgroundColor=none;edgeStyle=orthogonalEdgeStyle;entryX=0.5;entryY=0;entryDx=0;entryDy=0;exitX=0.5;exitY=1;exitDx=0;exitDy=0;" parent="WIyWlLk6GJQsqaUBKTNV-1" source="WIyWlLk6GJQsqaUBKTNV-6" target="SCx97nsvygvDcEJ_W3Nr-21" edge="1">
          <mxGeometry relative="1" as="geometry">
            <mxPoint x="436" y="490" as="sourcePoint" />
            <mxPoint x="446" y="410" as="targetPoint" />
          </mxGeometry>
        </mxCell>
        <mxCell id="SCx97nsvygvDcEJ_W3Nr-24" value="" style="rounded=0;html=1;jettySize=auto;orthogonalLoop=1;fontSize=11;endArrow=block;endFill=0;endSize=8;strokeWidth=1;shadow=0;labelBackgroundColor=none;edgeStyle=orthogonalEdgeStyle;entryX=0.5;entryY=0;entryDx=0;entryDy=0;exitX=0.5;exitY=1;exitDx=0;exitDy=0;" parent="WIyWlLk6GJQsqaUBKTNV-1" source="SCx97nsvygvDcEJ_W3Nr-21" target="N_SWZn74Nz-Q_obUlbYK-0" edge="1">
          <mxGeometry relative="1" as="geometry">
            <mxPoint x="446" y="490" as="sourcePoint" />
            <mxPoint x="256" y="600" as="targetPoint" />
            <Array as="points">
              <mxPoint x="436" y="560" />
              <mxPoint x="256" y="560" />
            </Array>
          </mxGeometry>
        </mxCell>
        <mxCell id="SCx97nsvygvDcEJ_W3Nr-26" value="" style="rounded=0;html=1;jettySize=auto;orthogonalLoop=1;fontSize=11;endArrow=block;endFill=0;endSize=8;strokeWidth=1;shadow=0;labelBackgroundColor=none;edgeStyle=orthogonalEdgeStyle;exitX=0.5;exitY=1;exitDx=0;exitDy=0;entryX=0.5;entryY=0;entryDx=0;entryDy=0;" parent="WIyWlLk6GJQsqaUBKTNV-1" source="SCx97nsvygvDcEJ_W3Nr-21" target="N_SWZn74Nz-Q_obUlbYK-1" edge="1">
          <mxGeometry relative="1" as="geometry">
            <mxPoint x="446" y="560" as="sourcePoint" />
            <mxPoint x="376" y="600" as="targetPoint" />
            <Array as="points">
              <mxPoint x="436" y="560" />
              <mxPoint x="376" y="560" />
            </Array>
          </mxGeometry>
        </mxCell>
        <mxCell id="SCx97nsvygvDcEJ_W3Nr-27" value="" style="rounded=0;html=1;jettySize=auto;orthogonalLoop=1;fontSize=11;endArrow=block;endFill=0;endSize=8;strokeWidth=1;shadow=0;labelBackgroundColor=none;edgeStyle=orthogonalEdgeStyle;entryX=0.5;entryY=0;entryDx=0;entryDy=0;" parent="WIyWlLk6GJQsqaUBKTNV-1" target="N_SWZn74Nz-Q_obUlbYK-2" edge="1">
          <mxGeometry relative="1" as="geometry">
            <mxPoint x="436" y="550" as="sourcePoint" />
            <mxPoint x="496" y="600" as="targetPoint" />
            <Array as="points">
              <mxPoint x="436" y="560" />
              <mxPoint x="496" y="560" />
            </Array>
          </mxGeometry>
        </mxCell>
        <mxCell id="SCx97nsvygvDcEJ_W3Nr-28" value="" style="rounded=0;html=1;jettySize=auto;orthogonalLoop=1;fontSize=11;endArrow=block;endFill=0;endSize=8;strokeWidth=1;shadow=0;labelBackgroundColor=none;edgeStyle=orthogonalEdgeStyle;entryX=0.5;entryY=0;entryDx=0;entryDy=0;" parent="WIyWlLk6GJQsqaUBKTNV-1" target="N_SWZn74Nz-Q_obUlbYK-5" edge="1">
          <mxGeometry relative="1" as="geometry">
            <mxPoint x="436" y="550" as="sourcePoint" />
            <mxPoint x="616" y="600" as="targetPoint" />
            <Array as="points">
              <mxPoint x="436" y="560" />
              <mxPoint x="615" y="560" />
              <mxPoint x="615" y="620" />
            </Array>
          </mxGeometry>
        </mxCell>
        <mxCell id="SCx97nsvygvDcEJ_W3Nr-29" value="" style="rounded=0;html=1;jettySize=auto;orthogonalLoop=1;fontSize=11;endArrow=block;endFill=0;endSize=8;strokeWidth=1;shadow=0;labelBackgroundColor=none;edgeStyle=orthogonalEdgeStyle;exitX=0.5;exitY=1;exitDx=0;exitDy=0;entryX=0.017;entryY=0.5;entryDx=0;entryDy=0;entryPerimeter=0;" parent="WIyWlLk6GJQsqaUBKTNV-1" edge="1">
          <mxGeometry relative="1" as="geometry">
            <mxPoint x="255.49" y="660" as="sourcePoint" />
            <mxPoint x="421.0000000000002" y="535" as="targetPoint" />
            <Array as="points">
              <mxPoint x="213" y="660" />
              <mxPoint x="213" y="690" />
              <mxPoint x="60" y="690" />
              <mxPoint x="60" y="535" />
            </Array>
          </mxGeometry>
        </mxCell>
        <mxCell id="SCx97nsvygvDcEJ_W3Nr-33" value="" style="endArrow=none;html=1;rounded=0;" parent="WIyWlLk6GJQsqaUBKTNV-1" edge="1">
          <mxGeometry width="50" height="50" relative="1" as="geometry">
            <mxPoint x="206" y="690" as="sourcePoint" />
            <mxPoint x="376" y="690" as="targetPoint" />
          </mxGeometry>
        </mxCell>
        <mxCell id="SCx97nsvygvDcEJ_W3Nr-34" value="" style="endArrow=none;html=1;rounded=0;entryX=0.5;entryY=1;entryDx=0;entryDy=0;" parent="WIyWlLk6GJQsqaUBKTNV-1" target="N_SWZn74Nz-Q_obUlbYK-1" edge="1">
          <mxGeometry width="50" height="50" relative="1" as="geometry">
            <mxPoint x="376" y="690" as="sourcePoint" />
            <mxPoint x="376" y="680" as="targetPoint" />
          </mxGeometry>
        </mxCell>
        <mxCell id="SCx97nsvygvDcEJ_W3Nr-35" value="" style="endArrow=none;html=1;rounded=0;" parent="WIyWlLk6GJQsqaUBKTNV-1" edge="1">
          <mxGeometry width="50" height="50" relative="1" as="geometry">
            <mxPoint x="496" y="690" as="sourcePoint" />
            <mxPoint x="616" y="690" as="targetPoint" />
          </mxGeometry>
        </mxCell>
        <mxCell id="SCx97nsvygvDcEJ_W3Nr-36" value="" style="rounded=0;html=1;jettySize=auto;orthogonalLoop=1;fontSize=11;endArrow=block;endFill=0;endSize=8;strokeWidth=1;shadow=0;labelBackgroundColor=none;edgeStyle=orthogonalEdgeStyle;entryX=1;entryY=0.5;entryDx=0;entryDy=0;exitX=0.5;exitY=1;exitDx=0;exitDy=0;" parent="WIyWlLk6GJQsqaUBKTNV-1" edge="1">
          <mxGeometry relative="1" as="geometry">
            <mxPoint x="616" y="660" as="sourcePoint" />
            <mxPoint x="451" y="535" as="targetPoint" />
            <Array as="points">
              <mxPoint x="616" y="690" />
              <mxPoint x="810" y="690" />
              <mxPoint x="810" y="535" />
            </Array>
          </mxGeometry>
        </mxCell>
        <mxCell id="SCx97nsvygvDcEJ_W3Nr-37" value="" style="endArrow=none;html=1;rounded=0;entryX=0.5;entryY=1;entryDx=0;entryDy=0;" parent="WIyWlLk6GJQsqaUBKTNV-1" target="N_SWZn74Nz-Q_obUlbYK-2" edge="1">
          <mxGeometry width="50" height="50" relative="1" as="geometry">
            <mxPoint x="496" y="690" as="sourcePoint" />
            <mxPoint x="495.9" y="678.7199999999999" as="targetPoint" />
          </mxGeometry>
        </mxCell>
        <mxCell id="N_SWZn74Nz-Q_obUlbYK-0" value="Creazione colonna sonora" style="rounded=1;whiteSpace=wrap;html=1;fontSize=12;glass=0;strokeWidth=1;shadow=0;" parent="WIyWlLk6GJQsqaUBKTNV-1" vertex="1">
          <mxGeometry x="196" y="620" width="120" height="40" as="geometry" />
        </mxCell>
        <mxCell id="N_SWZn74Nz-Q_obUlbYK-1" value="Modifica colonna sonora" style="rounded=1;whiteSpace=wrap;html=1;fontSize=12;glass=0;strokeWidth=1;shadow=0;" parent="WIyWlLk6GJQsqaUBKTNV-1" vertex="1">
          <mxGeometry x="316" y="620" width="120" height="40" as="geometry" />
        </mxCell>
        <mxCell id="N_SWZn74Nz-Q_obUlbYK-2" value="Registrazione colonna sonora" style="rounded=1;whiteSpace=wrap;html=1;fontSize=12;glass=0;strokeWidth=1;shadow=0;" parent="WIyWlLk6GJQsqaUBKTNV-1" vertex="1">
          <mxGeometry x="436" y="620" width="120" height="40" as="geometry" />
        </mxCell>
        <mxCell id="N_SWZn74Nz-Q_obUlbYK-5" value="Salvataggio colonna sonora" style="rounded=1;whiteSpace=wrap;html=1;fontSize=12;glass=0;strokeWidth=1;shadow=0;" parent="WIyWlLk6GJQsqaUBKTNV-1" vertex="1">
          <mxGeometry x="556" y="620" width="120" height="40" as="geometry" />
        </mxCell>
        <mxCell id="-htY1s0rjYqek_ZPAGyf-0" value="Registrazione colonna sonora" style="rounded=1;whiteSpace=wrap;html=1;fontSize=12;glass=0;strokeWidth=1;shadow=0;" vertex="1" parent="WIyWlLk6GJQsqaUBKTNV-1">
          <mxGeometry x="676" y="620" width="120" height="40" as="geometry" />
        </mxCell>
        <mxCell id="-htY1s0rjYqek_ZPAGyf-1" value="" style="rounded=0;html=1;jettySize=auto;orthogonalLoop=1;fontSize=11;endArrow=block;endFill=0;endSize=8;strokeWidth=1;shadow=0;labelBackgroundColor=none;edgeStyle=orthogonalEdgeStyle;entryX=0.5;entryY=0;entryDx=0;entryDy=0;" edge="1" parent="WIyWlLk6GJQsqaUBKTNV-1" target="-htY1s0rjYqek_ZPAGyf-0">
          <mxGeometry relative="1" as="geometry">
            <mxPoint x="446" y="560" as="sourcePoint" />
            <mxPoint x="626" y="630" as="targetPoint" />
            <Array as="points">
              <mxPoint x="736" y="560" />
            </Array>
          </mxGeometry>
        </mxCell>
        <mxCell id="-htY1s0rjYqek_ZPAGyf-3" value="" style="endArrow=none;html=1;rounded=0;entryX=0.5;entryY=1;entryDx=0;entryDy=0;" edge="1" parent="WIyWlLk6GJQsqaUBKTNV-1" target="-htY1s0rjYqek_ZPAGyf-0">
          <mxGeometry width="50" height="50" relative="1" as="geometry">
            <mxPoint x="736" y="690" as="sourcePoint" />
            <mxPoint x="746" y="760" as="targetPoint" />
          </mxGeometry>
        </mxCell>
        <mxCell id="-htY1s0rjYqek_ZPAGyf-4" value="visualizza portoflio" style="rounded=1;whiteSpace=wrap;html=1;fontSize=12;glass=0;strokeWidth=1;shadow=0;" vertex="1" parent="WIyWlLk6GJQsqaUBKTNV-1">
          <mxGeometry x="76" y="620" width="120" height="40" as="geometry" />
        </mxCell>
        <mxCell id="-htY1s0rjYqek_ZPAGyf-5" value="" style="endArrow=none;html=1;rounded=0;entryX=0.5;entryY=1;entryDx=0;entryDy=0;" edge="1" parent="WIyWlLk6GJQsqaUBKTNV-1" target="-htY1s0rjYqek_ZPAGyf-4">
          <mxGeometry width="50" height="50" relative="1" as="geometry">
            <mxPoint x="136" y="690" as="sourcePoint" />
            <mxPoint x="176" y="750" as="targetPoint" />
          </mxGeometry>
        </mxCell>
        <mxCell id="-htY1s0rjYqek_ZPAGyf-6" value="" style="rounded=0;html=1;jettySize=auto;orthogonalLoop=1;fontSize=11;endArrow=block;endFill=0;endSize=8;strokeWidth=1;shadow=0;labelBackgroundColor=none;edgeStyle=orthogonalEdgeStyle;exitX=0.5;exitY=1;exitDx=0;exitDy=0;entryX=0.5;entryY=0;entryDx=0;entryDy=0;" edge="1" parent="WIyWlLk6GJQsqaUBKTNV-1" target="-htY1s0rjYqek_ZPAGyf-4">
          <mxGeometry relative="1" as="geometry">
            <mxPoint x="447" y="560" as="sourcePoint" />
            <mxPoint x="127" y="620" as="targetPoint" />
            <Array as="points">
              <mxPoint x="137" y="560" />
              <mxPoint x="137" y="610" />
              <mxPoint x="136" y="610" />
            </Array>
          </mxGeometry>
        </mxCell>
      </root>
    </mxGraphModel>
  </diagram>
</mxfile>
